<svg width="31" height="30" viewBox="0 0 31 30" fill="none" xmlns="http://www.w3.org/2000/svg">
<path d="M7.77502 2.5L4.02502 7.5V25C4.02502 25.663 4.28842 26.2989 4.75726 26.7678C5.2261 27.2366 5.86198 27.5 6.52502 27.5H24.025C24.6881 27.5 25.3239 27.2366 25.7928 26.7678C26.2616 26.2989 26.525 25.663 26.525 25V7.5L22.775 2.5H7.77502Z" stroke="white" stroke-width="2" stroke-linecap="round" stroke-linejoin="round"/>
<path d="M4.02502 7.5H26.525" stroke="white" stroke-width="2" stroke-linecap="round" stroke-linejoin="round"/>
<path d="M20.275 12.5C20.275 13.8261 19.7482 15.0979 18.8106 16.0355C17.8729 16.9732 16.6011 17.5 15.275 17.5C13.9489 17.5 12.6772 16.9732 11.7395 16.0355C10.8018 15.0979 10.275 13.8261 10.275 12.5" stroke="white" stroke-width="2" stroke-linecap="round" stroke-linejoin="round"/>
</svg>
