<svg width="40" height="29" viewBox="0 0 40 29" fill="none" xmlns="http://www.w3.org/2000/svg">
<path d="M37.634 5.69984C37.4361 4.90885 37.0329 4.18412 36.4651 3.59885C35.8974 3.01357 35.1853 2.58848 34.4007 2.3665C31.534 1.6665 20.0674 1.6665 20.0674 1.6665C20.0674 1.6665 8.60071 1.6665 5.73405 2.43317C4.94946 2.65514 4.23734 3.08024 3.66962 3.66551C3.10191 4.25079 2.69869 4.97552 2.50071 5.7665C1.97607 8.67576 1.71944 11.627 1.73405 14.5832C1.71534 17.5616 1.97199 20.5353 2.50071 23.4665C2.71898 24.2329 3.13122 24.9301 3.69762 25.4906C4.26401 26.0512 4.96541 26.4562 5.73405 26.6665C8.60071 27.4332 20.0674 27.4332 20.0674 27.4332C20.0674 27.4332 31.534 27.4332 34.4007 26.6665C35.1853 26.4445 35.8974 26.0194 36.4651 25.4342C37.0329 24.8489 37.4361 24.1242 37.634 23.3332C38.1546 20.4458 38.4113 17.5171 38.4007 14.5832C38.4194 11.6048 38.1628 8.631 37.634 5.69984V5.69984Z" stroke="white" stroke-width="3" stroke-linecap="round" stroke-linejoin="round"/>
</svg>
