<svg width="41" height="40" viewBox="0 0 41 40" fill="none" xmlns="http://www.w3.org/2000/svg">
<g clip-path="url(#clip0_69_397)">
<path d="M37.634 10.6998C37.4361 9.90885 37.0329 9.18412 36.4651 8.59885C35.8974 8.01357 35.1853 7.58848 34.4007 7.3665C31.534 6.6665 20.0674 6.6665 20.0674 6.6665C20.0674 6.6665 8.60071 6.6665 5.73405 7.43317C4.94946 7.65514 4.23734 8.08024 3.66962 8.66551C3.10191 9.25079 2.69869 9.97552 2.50071 10.7665C1.97607 13.6758 1.71944 16.627 1.73405 19.5832C1.71534 22.5616 1.97199 25.5353 2.50071 28.4665C2.71898 29.2329 3.13122 29.9301 3.69762 30.4906C4.26401 31.0512 4.96541 31.4562 5.73405 31.6665C8.60071 32.4332 20.0674 32.4332 20.0674 32.4332C20.0674 32.4332 31.534 32.4332 34.4007 31.6665C35.1853 31.4445 35.8974 31.0194 36.4651 30.4342C37.0329 29.8489 37.4361 29.1242 37.634 28.3332C38.1546 25.4458 38.4113 22.5171 38.4007 19.5832C38.4194 16.6048 38.1628 13.631 37.634 10.6998V10.6998Z" stroke="white" stroke-width="3" stroke-linecap="round" stroke-linejoin="round"/>
<path d="M16.3174 25.0333L25.9007 19.5833L16.3174 14.1333V25.0333Z" stroke="white" stroke-width="3" stroke-linecap="round" stroke-linejoin="round"/>
</g>
<defs>
<clipPath id="clip0_69_397">
<rect width="40" height="40" fill="white" transform="translate(0.0673828)"/>
</clipPath>
</defs>
</svg>
